<?xml version="1.0" encoding="UTF-8" standalone="no"?>
<!-- Created with Inkscape (http://www.inkscape.org/) -->

<svg
   xmlns:dc="http://purl.org/dc/elements/1.1/"
   xmlns:cc="http://creativecommons.org/ns#"
   xmlns:rdf="http://www.w3.org/1999/02/22-rdf-syntax-ns#"
   xmlns:svg="http://www.w3.org/2000/svg"
   xmlns="http://www.w3.org/2000/svg"
   xmlns:sodipodi="http://sodipodi.sourceforge.net/DTD/sodipodi-0.dtd"
   xmlns:inkscape="http://www.inkscape.org/namespaces/inkscape"
   version="1.1"
   id="svg2"
   width="756.29022"
   height="217"
   viewBox="0 0 756.29022 217"
   sodipodi:docname="icon.svg"
   inkscape:version="0.92.4 5da689c313, 2019-01-14">
  <metadata
     id="metadata8">
    <rdf:RDF>
      <cc:Work
         rdf:about="">
        <dc:format>image/svg+xml</dc:format>
        <dc:type
           rdf:resource="http://purl.org/dc/dcmitype/StillImage" />
        <dc:title></dc:title>
      </cc:Work>
    </rdf:RDF>
  </metadata>
  <defs
     id="defs6" />
  <sodipodi:namedview
     pagecolor="#ffffff"
     bordercolor="#666666"
     borderopacity="1"
     objecttolerance="10"
     gridtolerance="10"
     guidetolerance="10"
     inkscape:pageopacity="0"
     inkscape:pageshadow="2"
     inkscape:window-width="1920"
     inkscape:window-height="1001"
     id="namedview4"
     showgrid="true"
     inkscape:zoom="2.8364203"
     inkscape:cx="291.59004"
     inkscape:cy="71.090538"
     inkscape:window-x="0"
     inkscape:window-y="25"
     inkscape:window-maximized="1"
     inkscape:current-layer="svg2"
     fit-margin-top="0"
     fit-margin-left="0"
     fit-margin-right="0"
     fit-margin-bottom="0">
    <inkscape:grid
       type="xygrid"
       id="grid134"
       originx="-38.13712"
       originy="-15.093625" />
  </sodipodi:namedview>
  <path
     inkscape:connector-curvature="0"
     id="path118"
     d="M 102.67076,211.75 C 99.61465,208.8625 74.68777,184.86808 48.5571,157.19528 L 0,107.89056 53.91099,53.94528 C 83.56203,24.27538 108.28121,0 108.84249,0 c 1.31909,0 47.50456,46.19492 47.50456,47.51428 0,0.54926 -13.05,14.04283 -29,29.98572 -15.95,15.94289 -29,29.66789 -29,30.5 0,0.83211 13.05,14.55711 29,30.5 15.95,15.94289 29,29.67767 29,30.52174 0,1.50775 -45.87037,47.97826 -47.35865,47.97826 -0.41859,0 -3.26153,-2.3625 -6.31764,-5.25 z m 46.41982,-73.50636 c -15.80894,-15.81599 -28.74353,-29.20635 -28.74353,-29.75635 0,-0.55 12.71604,-14.84846 29.5,-30.48729 l 29.5,-29.48729 29.5,29.48729 c 16.225,16.21801 29.5,29.94306 29.5,30.50011 0,1.63376 -57.36474,58.49989 -59.01282,58.49989 -0.82506,0 -14.4347,-12.94036 -30.24365,-28.75636 z m 279.89054,14.60191 c -13.06675,-2.49944 -25.34773,-11.4162 -30.63171,-22.24055 -6.90833,-14.15187 -5.67793,-33.49549 2.926,-46.00087 8.01077,-11.64326 22.32853,-17.99301 40.57164,-17.99301 15.78829,0 27.41432,4.18291 36.29697,13.05921 6.33664,6.3321 9.71898,13.28017 11.23527,23.07967 2.94963,19.06297 -5.29984,36.78403 -21.02543,45.16569 -10.22267,5.44862 -26.20135,7.44931 -39.37274,4.92986 z m 19.6399,-27.22271 c 4.048,-2.47076 6.22603,-7.76114 6.22603,-15.12284 0,-11.08844 -4.43166,-16.5 -13.51226,-16.5 -8.89901,0 -14.7194,10.61318 -12.01126,21.90194 1.33759,5.5757 5.47004,10.65213 9.282,11.40229 2.86717,0.56423 7.65257,-0.23913 10.01549,-1.68139 z m 251.24186,26.77399 c -8.48352,-1.88598 -21.28874,-7.64146 -22.18235,-9.97017 C 676.93874,140.49357 685.71033,122 687.369,122 c 0.56929,0 3.60975,1.28737 6.75657,2.86082 11.65287,5.8266 25.33896,8.41079 28.39578,5.36166 2.56788,-2.56142 -0.65137,-4.64953 -12.78304,-8.29152 -14.44025,-4.33504 -18.93393,-6.57547 -23.64293,-11.78776 -3.81644,-4.22435 -5.73352,-9.3024 -5.74275,-15.2117 -0.0327,-20.91446 22.48929,-33.01245 51.22251,-27.51487 8.93791,1.7101 23.70595,7.24791 24.44172,9.1653 0.4638,1.20863 -7.48945,17.43535 -9.70273,19.79613 -0.46372,0.49462 -4.89392,-0.78218 -10.14514,-2.92387 -7.58304,-3.09272 -10.62771,-3.81613 -16.32194,-3.87806 -6.26941,-0.0682 -7.02943,0.13261 -7.28198,1.92387 -0.38482,2.72934 1.71524,3.82279 14.35835,7.47603 17.64417,5.09831 25.99626,11.02728 28.47993,20.2173 3.57658,13.23401 -3.90799,26.49089 -18.0563,31.98181 -7.35678,2.85515 -27.22386,3.50266 -37.48417,1.22169 z m -416.27417,-0.22631 c -0.99203,-0.6298 -1.20367,-12.84844 -1,-57.73469 L 282.84705,37.5 h 17 17 l 0.25484,24 c 0.14016,13.2 0.50522,24.67113 0.81124,25.4914 0.39152,1.0494 3.57597,-1.69367 10.74517,-9.25583 l 10.18875,-10.74723 17,0.0211 c 9.35,0.0116 17.60037,0.40171 18.33415,0.86685 0.98193,0.62245 -2.45003,4.87746 -13,16.11764 -7.88378,8.39956 -14.30893,15.9996 -14.2781,16.88898 0.0308,0.88938 6.44723,12.5662 14.25868,25.94849 7.81145,13.3823 13.94717,24.7448 13.63493,25.25 -0.68151,1.10272 -37.43013,1.21816 -39.15311,0.123 -0.6619,-0.42072 -3.7382,-6.03624 -6.83621,-12.47895 -3.09801,-6.4427 -6.07231,-11.98567 -6.60956,-12.31771 -0.53724,-0.33204 -1.84845,0.18512 -2.91379,1.14925 -1.6869,1.52661 -1.93699,3.13938 -1.93699,12.49097 0,8.86918 -0.27529,10.84366 -1.58179,11.34501 -2.34987,0.90173 -30.71465,0.70559 -32.17655,-0.22249 z m 237.98204,-0.34682 c -1.74591,-1.74591 -1.76862,-81.87878 -0.0237,-83.6237 1.26456,-1.26456 29.13153,-1.77748 32.21821,-0.59301 1.11023,0.42603 1.58179,1.91664 1.58179,5 0,2.41616 0.46324,4.39301 1.02942,4.39301 0.56618,0 3.30494,-1.7987 6.08613,-3.9971 5.09222,-4.02517 14.71265,-7.66654 17.46473,-6.61047 1.22371,0.46959 1.42651,3.06883 1.19657,15.33649 L 580.84705,96.5 l -7.53569,0.53599 c -5.27013,0.37485 -8.57722,1.18455 -11,2.69321 -6.28232,3.91198 -6.41444,4.47675 -6.96431,29.7708 l -0.5,23 -16.0263,0.2737 c -11.6196,0.19844 -16.36278,-0.0628 -17.25,-0.95 z m 90.9763,-0.0237 c -0.89408,-0.89408 -1.2,-11.59218 -1.2,-41.96482 0,-39.27952 0.0705,-40.80253 1.93426,-41.79999 2.80353,-1.50041 30.34296,-1.35797 31.86574,0.16481 1.72434,1.72435 1.72434,81.87566 0,83.6 -0.82737,0.82737 -5.88889,1.2 -16.3,1.2 -10.41111,0 -15.47263,-0.37263 -16.3,-1.2 z m 7.3,-94.07057 c -7.68438,-4.29876 -10.57545,-14.81068 -6.42905,-23.376 2.92961,-6.05175 7.81214,-8.84541 15.42905,-8.82809 10.27421,0.0234 16.1635,5.41958 17.14174,15.70658 1.33726,14.06242 -13.62063,23.50203 -26.14174,16.49751 z"
     style="fill:#51b5b3"
     sodipodi:nodetypes="sscsssssssssssscsssssssssssscsssccscscssccsccsccsssscscccscscscscsccsccsscccscssccscssscscssscssscccsc" />
  <path
     inkscape:connector-curvature="0"
     id="path116"
     d="M 53.49649,161.43968 0,107.89056 53.5,54.98701 C 82.925,25.89006 107.44633,2.06216 107.99184,2.03613 109.2735,1.97493 153.5,46.14582 153.5,47.48704 c 0,0.5582 -12.825,13.83399 -28.5,29.50175 -18.46082,18.4523 -28.5,29.19594 -28.5,30.49989 0,1.30474 10.20376,12.21225 29,31.00011 15.95,15.94289 29,29.44365 29,30.00169 0,1.31312 -45.19799,46.49831 -46.51149,46.49831 -0.54753,0 -25.06894,-24.0971 -54.49202,-53.54911 z m 130,-40 c -174.22915,-92.94684 -87.11458,-46.47342 0,0 z"
     style="fill:#1897a0"
     sodipodi:nodetypes="scscssssssscc" />
  <path
     inkscape:connector-curvature="0"
     id="path112"
     d="M 54,161.89056 C 24.97143,133.17943 1.23393,109.23491 1.25,108.68052 1.289,107.3361 47.50829,61.1885 48.81583,61.1885 c 1.72656,0 46.46339,45.49219 46.46339,47.24791 0,0.90656 10.38651,12.13415 23.08114,24.95019 12.69462,12.81605 25.83429,26.1335 29.19926,29.59434 l 6.11812,6.29244 -22.44093,22.45756 C 118.8943,204.0826 108.34214,214.16693 107.78755,214.14056 107.23297,214.11416 83.02857,190.6017 54,161.89056 Z"
     style="fill:#017388"
     sodipodi:nodetypes="scsssscscs" />
  <path
     style="opacity:0;fill:#000080;fill-opacity:1;stroke:#000000;stroke-width:0.57241285;stroke-opacity:0.97641512"
     d="m 77.35306,184.25059 c -16.0119,-15.96598 -29.04502,-29.19217 -28.96248,-29.39154 0.0825,-0.19936 11.04713,-10.16417 24.36574,-22.14401 l 24.21566,-21.78152 2.66471,2.94727 c 1.46559,1.621 6.82526,7.19743 11.91039,12.39208 15.31806,15.64799 40.60031,42.42659 40.60031,43.00326 0,0.69305 -44.43669,44.0035 -45.14775,44.0035 -0.29372,0 -13.63468,-13.06307 -29.64658,-29.02904 z"
     id="path138"
     inkscape:connector-curvature="0" />
  <path
     style="opacity:0;fill:#000080;fill-opacity:1;stroke:#000000;stroke-width:0.57241285;stroke-opacity:0.97641512"
     d="m 77.35306,184.25059 c -16.0119,-15.96598 -29.04502,-29.19217 -28.96248,-29.39154 0.0825,-0.19936 11.04713,-10.16417 24.36574,-22.14401 l 24.21566,-21.78152 2.66471,2.94727 c 1.46559,1.621 6.82526,7.19743 11.91039,12.39208 15.31806,15.64799 40.60031,42.42659 40.60031,43.00326 0,0.69305 -44.43669,44.0035 -45.14775,44.0035 -0.29372,0 -13.63468,-13.06307 -29.64658,-29.02904 z"
     id="path140"
     inkscape:connector-curvature="0" />
  <path
     style="opacity:0;fill:#000080;fill-opacity:1;stroke:#000000;stroke-width:0.57241285;stroke-opacity:0.97641512"
     d="m 77.35306,184.25059 c -16.0119,-15.96598 -29.04502,-29.19217 -28.96248,-29.39154 0.0825,-0.19936 11.04713,-10.16417 24.36574,-22.14401 l 24.21566,-21.78152 2.66471,2.94727 c 1.46559,1.621 6.82526,7.19743 11.91039,12.39208 15.31806,15.64799 40.60031,42.42659 40.60031,43.00326 0,0.69305 -44.43669,44.0035 -45.14775,44.0035 -0.29372,0 -13.63468,-13.06307 -29.64658,-29.02904 z"
     id="path142"
     inkscape:connector-curvature="0" />
  <path
     style="opacity:0;fill:#000080;fill-opacity:1;stroke:#000000;stroke-width:0.57241285;stroke-opacity:0.97641512"
     d="m 77.35306,184.25059 c -16.0119,-15.96598 -29.04502,-29.19217 -28.96248,-29.39154 0.0825,-0.19936 11.04713,-10.16417 24.36574,-22.14401 l 24.21566,-21.78152 2.66471,2.94727 c 1.46559,1.621 6.82526,7.19743 11.91039,12.39208 15.31806,15.64799 40.60031,42.42659 40.60031,43.00326 0,0.69305 -44.43669,44.0035 -45.14775,44.0035 -0.29372,0 -13.63468,-13.06307 -29.64658,-29.02904 z"
     id="path144"
     inkscape:connector-curvature="0" />
  <g
     id="g4727"
     transform="translate(-835.5,-381.60944)">
    <path
       style="fill:#015c5f"
       d="M 859.5,513.5 836.01604,490.00008 858.99982,467 c 12.64108,-12.65005 23.44112,-23.00009 24.00009,-23.00009 1.31722,0 46.5,45.19846 46.5,46.51613 0,0.98428 -45.0416,46.48387 -46.01596,46.48387 -0.275,0 -11.06778,-10.57496 -23.98395,-23.49991 z"
       id="path4731"
       inkscape:connector-curvature="0"
       sodipodi:nodetypes="scsssss" />
  </g>
</svg>
