<?xml version="1.0" encoding="UTF-8" standalone="no"?>
<!-- Created with Inkscape (http://www.inkscape.org/) -->

<svg
   xmlns:dc="http://purl.org/dc/elements/1.1/"
   xmlns:cc="http://creativecommons.org/ns#"
   xmlns:rdf="http://www.w3.org/1999/02/22-rdf-syntax-ns#"
   xmlns:svg="http://www.w3.org/2000/svg"
   xmlns="http://www.w3.org/2000/svg"
   xmlns:sodipodi="http://sodipodi.sourceforge.net/DTD/sodipodi-0.dtd"
   xmlns:inkscape="http://www.inkscape.org/namespaces/inkscape"
   version="1.1"
   id="svg2"
   width="238.34705"
   height="217"
   viewBox="0 0 238.34705 217"
   sodipodi:docname="icon.svg"
   inkscape:version="0.92.4 5da689c313, 2019-01-14">
  <metadata
     id="metadata8">
    <rdf:RDF>
      <cc:Work
         rdf:about="">
        <dc:format>image/svg+xml</dc:format>
        <dc:type
           rdf:resource="http://purl.org/dc/dcmitype/StillImage" />
        <dc:title></dc:title>
      </cc:Work>
    </rdf:RDF>
  </metadata>
  <defs
     id="defs6" />
  <sodipodi:namedview
     pagecolor="#ffffff"
     bordercolor="#666666"
     borderopacity="1"
     objecttolerance="10"
     gridtolerance="10"
     guidetolerance="10"
     inkscape:pageopacity="0"
     inkscape:pageshadow="2"
     inkscape:window-width="1920"
     inkscape:window-height="1001"
     id="namedview4"
     showgrid="true"
     inkscape:zoom="0.94316065"
     inkscape:cx="-21.18807"
     inkscape:cy="198.01108"
     inkscape:window-x="0"
     inkscape:window-y="25"
     inkscape:window-maximized="1"
     inkscape:current-layer="svg2"
     fit-margin-top="0"
     fit-margin-left="0"
     fit-margin-right="0"
     fit-margin-bottom="0">
    <inkscape:grid
       type="xygrid"
       id="grid134"
       originx="-38.137121"
       originy="-15.093625" />
  </sodipodi:namedview>
  <path
     inkscape:connector-curvature="0"
     id="path118"
     d="M 102.67076,211.75 C 99.61465,208.8625 74.68777,184.86808 48.5571,157.19528 L 0,107.89056 53.91099,53.94528 C 83.56203,24.27538 108.28121,0 108.84249,0 c 1.31909,0 47.50456,46.19492 47.50456,47.51428 0,0.54926 -13.05,14.04283 -29,29.98572 -15.95,15.94289 -29,29.66789 -29,30.5 0,0.83211 13.05,14.55711 29,30.5 15.95,15.94289 29,29.67767 29,30.52174 0,1.50775 -45.87037,47.97826 -47.35865,47.97826 -0.41859,0 -3.26153,-2.3625 -6.31764,-5.25 z m 46.41982,-73.50636 c -15.80894,-15.81599 -28.74353,-29.20635 -28.74353,-29.75635 0,-0.55 12.71604,-14.84846 29.5,-30.48729 l 29.5,-29.48729 29.5,29.48729 c 16.225,16.21801 29.5,29.94306 29.5,30.50011 0,1.63376 -57.36474,58.49989 -59.01282,58.49989 -0.82506,0 -14.4347,-12.94036 -30.24365,-28.75636 z"
     style="fill:#51b5b3"
     sodipodi:nodetypes="sscsssssssssssscssss" />
  <path
     inkscape:connector-curvature="0"
     id="path116"
     d="M 53.49649,161.43968 0,107.89056 53.5,54.98701 C 82.925,25.89006 107.44633,2.06216 107.99184,2.03613 109.2735,1.97493 153.5,46.14582 153.5,47.48704 c 0,0.5582 -12.825,13.83399 -28.5,29.50175 -18.46082,18.4523 -28.5,29.19594 -28.5,30.49989 0,1.30474 10.20376,12.21225 29,31.00011 15.95,15.94289 29,29.44365 29,30.00169 0,1.31312 -45.19799,46.49831 -46.51149,46.49831 -0.54753,0 -25.06894,-24.0971 -54.49202,-53.54911 z m 130,-40 c -174.22915,-92.94684 -87.11458,-46.47342 0,0 z"
     style="fill:#1897a0"
     sodipodi:nodetypes="scscssssssscc" />
  <path
     inkscape:connector-curvature="0"
     id="path112"
     d="M 54,161.89056 C 24.97143,133.17943 1.23393,109.23491 1.25,108.68052 1.289,107.3361 47.50829,61.1885 48.81583,61.1885 c 1.72656,0 46.46339,45.49219 46.46339,47.24791 0,0.90656 10.38651,12.13415 23.08114,24.95019 12.69462,12.81605 25.83429,26.1335 29.19926,29.59434 l 6.11812,6.29244 -22.44093,22.45756 C 118.8943,204.0826 108.34214,214.16693 107.78755,214.14056 107.23297,214.11416 83.02857,190.6017 54,161.89056 Z"
     style="fill:#017388"
     sodipodi:nodetypes="scsssscscs" />
  <path
     style="opacity:0;fill:#000080;fill-opacity:1;stroke:#000000;stroke-width:0.57241285;stroke-opacity:0.97641512"
     d="m 77.35306,184.25059 c -16.0119,-15.96598 -29.04502,-29.19217 -28.96248,-29.39154 0.0825,-0.19936 11.04713,-10.16417 24.36574,-22.14401 l 24.21566,-21.78152 2.66471,2.94727 c 1.46559,1.621 6.82526,7.19743 11.91039,12.39208 15.31806,15.64799 40.60031,42.42659 40.60031,43.00326 0,0.69305 -44.43669,44.0035 -45.14775,44.0035 -0.29372,0 -13.63468,-13.06307 -29.64658,-29.02904 z"
     id="path138"
     inkscape:connector-curvature="0" />
  <path
     style="opacity:0;fill:#000080;fill-opacity:1;stroke:#000000;stroke-width:0.57241285;stroke-opacity:0.97641512"
     d="m 77.35306,184.25059 c -16.0119,-15.96598 -29.04502,-29.19217 -28.96248,-29.39154 0.0825,-0.19936 11.04713,-10.16417 24.36574,-22.14401 l 24.21566,-21.78152 2.66471,2.94727 c 1.46559,1.621 6.82526,7.19743 11.91039,12.39208 15.31806,15.64799 40.60031,42.42659 40.60031,43.00326 0,0.69305 -44.43669,44.0035 -45.14775,44.0035 -0.29372,0 -13.63468,-13.06307 -29.64658,-29.02904 z"
     id="path140"
     inkscape:connector-curvature="0" />
  <path
     style="opacity:0;fill:#000080;fill-opacity:1;stroke:#000000;stroke-width:0.57241285;stroke-opacity:0.97641512"
     d="m 77.35306,184.25059 c -16.0119,-15.96598 -29.04502,-29.19217 -28.96248,-29.39154 0.0825,-0.19936 11.04713,-10.16417 24.36574,-22.14401 l 24.21566,-21.78152 2.66471,2.94727 c 1.46559,1.621 6.82526,7.19743 11.91039,12.39208 15.31806,15.64799 40.60031,42.42659 40.60031,43.00326 0,0.69305 -44.43669,44.0035 -45.14775,44.0035 -0.29372,0 -13.63468,-13.06307 -29.64658,-29.02904 z"
     id="path142"
     inkscape:connector-curvature="0" />
  <path
     style="opacity:0;fill:#000080;fill-opacity:1;stroke:#000000;stroke-width:0.57241285;stroke-opacity:0.97641512"
     d="m 77.35306,184.25059 c -16.0119,-15.96598 -29.04502,-29.19217 -28.96248,-29.39154 0.0825,-0.19936 11.04713,-10.16417 24.36574,-22.14401 l 24.21566,-21.78152 2.66471,2.94727 c 1.46559,1.621 6.82526,7.19743 11.91039,12.39208 15.31806,15.64799 40.60031,42.42659 40.60031,43.00326 0,0.69305 -44.43669,44.0035 -45.14775,44.0035 -0.29372,0 -13.63468,-13.06307 -29.64658,-29.02904 z"
     id="path144"
     inkscape:connector-curvature="0" />
  <g
     id="g4727"
     transform="translate(-835.5,-381.60944)">
    <path
       style="fill:#015c5f"
       d="M 859.5,513.5 836.01604,490.00008 858.99982,467 c 12.64108,-12.65005 23.44112,-23.00009 24.00009,-23.00009 1.31722,0 46.5,45.19846 46.5,46.51613 0,0.98428 -45.0416,46.48387 -46.01596,46.48387 -0.275,0 -11.06778,-10.57496 -23.98395,-23.49991 z"
       id="path4731"
       inkscape:connector-curvature="0"
       sodipodi:nodetypes="scsssss" />
  </g>
</svg>
