<?xml version="1.0" encoding="UTF-8" standalone="no"?>
<!-- Created with Inkscape (http://www.inkscape.org/) -->

<svg
   xmlns:dc="http://purl.org/dc/elements/1.1/"
   xmlns:cc="http://creativecommons.org/ns#"
   xmlns:rdf="http://www.w3.org/1999/02/22-rdf-syntax-ns#"
   xmlns:svg="http://www.w3.org/2000/svg"
   xmlns="http://www.w3.org/2000/svg"
   xmlns:sodipodi="http://sodipodi.sourceforge.net/DTD/sodipodi-0.dtd"
   xmlns:inkscape="http://www.inkscape.org/namespaces/inkscape"
   version="1.1"
   id="svg2"
   width="239.00021"
   height="278.19995"
   viewBox="0 0 239.00021 278.19995"
   sodipodi:docname="stacked.svg"
   inkscape:version="0.92.4 5da689c313, 2019-01-14">
  <metadata
     id="metadata8">
    <rdf:RDF>
      <cc:Work
         rdf:about="">
        <dc:format>image/svg+xml</dc:format>
        <dc:type
           rdf:resource="http://purl.org/dc/dcmitype/StillImage" />
        <dc:title></dc:title>
      </cc:Work>
    </rdf:RDF>
  </metadata>
  <defs
     id="defs6" />
  <sodipodi:namedview
     pagecolor="#ffffff"
     bordercolor="#666666"
     borderopacity="1"
     objecttolerance="10"
     gridtolerance="10"
     guidetolerance="10"
     inkscape:pageopacity="0"
     inkscape:pageshadow="2"
     inkscape:window-width="1920"
     inkscape:window-height="1001"
     id="namedview4"
     showgrid="true"
     inkscape:zoom="0.70910507"
     inkscape:cx="-145.9287"
     inkscape:cy="341.27027"
     inkscape:window-x="0"
     inkscape:window-y="25"
     inkscape:window-maximized="1"
     inkscape:current-layer="svg2"
     fit-margin-top="0"
     fit-margin-left="0"
     fit-margin-right="0"
     fit-margin-bottom="0">
    <inkscape:grid
       type="xygrid"
       id="grid134"
       originx="-18"
       originy="0.3032051" />
  </sodipodi:namedview>
  <path
     inkscape:connector-curvature="0"
     id="path118"
     d="M 103.32392,211.75 C 100.26781,208.8625 75.91666,184.31287 49.21026,157.19528 L 0.65316,107.89056 54.56415,53.94528 C 84.21519,24.27538 108.93437,0 109.49565,0 c 1.31909,0 47.50456,46.19492 47.50456,47.51428 0,0.54926 -13.05,14.04283 -29,29.98572 -15.95,15.94289 -29,29.66789 -29,30.5 0,0.83211 13.05,14.55711 29,30.5 15.95,15.94289 29,29.67767 29,30.52174 0,1.50775 -45.87037,47.97826 -47.35865,47.97826 -0.41859,0 -3.26153,-2.3625 -6.31764,-5.25 z m 46.41982,-73.50636 c -15.80894,-15.81599 -28.74353,-29.20635 -28.74353,-29.75635 0,-0.55 13.275,-14.26928 29.5,-30.48729 l 29.5,-29.48729 29.5,29.48729 c 16.225,16.21801 29.5,29.94306 29.5,30.50011 0,1.63376 -57.36474,58.49989 -59.01282,58.49989 -0.82506,0 -14.4347,-12.94036 -30.24365,-28.75636 z"
     style="fill:#51b5b3"
     sodipodi:nodetypes="sscsssssssssssscssss" />
  <path
     inkscape:connector-curvature="0"
     id="path116"
     d="M 53.49649,161.44587 0,107.89675 53.5,54.9932 C 82.925,25.89625 107.44633,2.06835 107.99184,2.04232 109.2735,1.98112 153.5,46.15201 153.5,47.49323 c 0,0.5582 -12.825,13.83399 -28.5,29.50175 -18.46082,18.4523 -28.5,29.19594 -28.5,30.49989 0,1.30474 10.20376,12.21225 29,31.00011 15.95,15.94289 29,29.44365 29,30.00169 0,1.31312 -45.19799,46.49831 -46.51149,46.49831 -0.54753,0 -25.06894,-24.0971 -54.49202,-53.54911 z m 130,-40 c -174.22915,-92.94684 -87.11458,-46.47342 0,0 z"
     style="fill:#1897a0"
     sodipodi:nodetypes="scscssssssscc" />
  <path
     inkscape:connector-curvature="0"
     id="path112"
     d="M 54,161.89675 C 24.97143,133.18562 1.23393,109.2411 1.25,108.68671 1.289,107.34229 47.50829,61.19469 48.81583,61.19469 c 1.72656,0 46.46339,45.49219 46.46339,47.24791 0,0.90656 10.38651,12.13415 23.08114,24.95019 12.69462,12.81605 25.83429,26.1335 29.19926,29.59434 l 6.11812,6.29244 -22.44093,22.45756 c -12.34251,12.35166 -22.89467,22.43599 -23.44926,22.40962 -0.55458,-0.0264 -24.75898,-23.53886 -53.78755,-52.25 z"
     style="fill:#017388"
     sodipodi:nodetypes="scsssscscs" />
  <path
     style="opacity:0;fill:#000080;fill-opacity:1;stroke:#000000;stroke-width:0.57241285;stroke-opacity:0.97641512"
     d="M 77.35306,184.25678 C 61.34116,168.2908 48.30804,155.06461 48.39058,154.86524 c 0.0825,-0.19936 11.04713,-10.16417 24.36574,-22.14401 l 24.21566,-21.78152 2.66471,2.94727 c 1.46559,1.621 6.82526,7.19743 11.91039,12.39208 15.31806,15.64799 40.60031,42.42659 40.60031,43.00326 0,0.69305 -44.43669,44.0035 -45.14775,44.0035 -0.29372,0 -13.63468,-13.06307 -29.64658,-29.02904 z"
     id="path138"
     inkscape:connector-curvature="0" />
  <path
     style="opacity:0;fill:#000080;fill-opacity:1;stroke:#000000;stroke-width:0.57241285;stroke-opacity:0.97641512"
     d="M 77.35306,184.25678 C 61.34116,168.2908 48.30804,155.06461 48.39058,154.86524 c 0.0825,-0.19936 11.04713,-10.16417 24.36574,-22.14401 l 24.21566,-21.78152 2.66471,2.94727 c 1.46559,1.621 6.82526,7.19743 11.91039,12.39208 15.31806,15.64799 40.60031,42.42659 40.60031,43.00326 0,0.69305 -44.43669,44.0035 -45.14775,44.0035 -0.29372,0 -13.63468,-13.06307 -29.64658,-29.02904 z"
     id="path140"
     inkscape:connector-curvature="0" />
  <path
     style="opacity:0;fill:#000080;fill-opacity:1;stroke:#000000;stroke-width:0.57241285;stroke-opacity:0.97641512"
     d="M 77.35306,184.25678 C 61.34116,168.2908 48.30804,155.06461 48.39058,154.86524 c 0.0825,-0.19936 11.04713,-10.16417 24.36574,-22.14401 l 24.21566,-21.78152 2.66471,2.94727 c 1.46559,1.621 6.82526,7.19743 11.91039,12.39208 15.31806,15.64799 40.60031,42.42659 40.60031,43.00326 0,0.69305 -44.43669,44.0035 -45.14775,44.0035 -0.29372,0 -13.63468,-13.06307 -29.64658,-29.02904 z"
     id="path142"
     inkscape:connector-curvature="0" />
  <path
     style="opacity:0;fill:#000080;fill-opacity:1;stroke:#000000;stroke-width:0.57241285;stroke-opacity:0.97641512"
     d="M 77.35306,184.25678 C 61.34116,168.2908 48.30804,155.06461 48.39058,154.86524 c 0.0825,-0.19936 11.04713,-10.16417 24.36574,-22.14401 l 24.21566,-21.78152 2.66471,2.94727 c 1.46559,1.621 6.82526,7.19743 11.91039,12.39208 15.31806,15.64799 40.60031,42.42659 40.60031,43.00326 0,0.69305 -44.43669,44.0035 -45.14775,44.0035 -0.29372,0 -13.63468,-13.06307 -29.64658,-29.02904 z"
     id="path144"
     inkscape:connector-curvature="0" />
  <g
     id="g4727"
     transform="translate(-835.36288,-94.10952)">
    <path
       style="fill:#015c5f"
       d="M 859.5,225.5 836.01604,202.00008 858.99982,179 c 12.64108,-12.65005 23.44112,-23.00009 24.00009,-23.00009 1.31722,0 46.5,45.19846 46.5,46.51613 0,0.98428 -45.0416,46.48387 -46.01596,46.48387 -0.275,0 -10.50662,-11.16121 -23.98395,-23.49991 z"
       id="path4731"
       inkscape:connector-curvature="0"
       sodipodi:nodetypes="scsssss" />
  </g>
  <path
     inkscape:connector-curvature="0"
     id="path118-9"
     d="m 73.572002,277.66556 c -6.479525,-1.23942 -12.569404,-5.66105 -15.189619,-11.02863 -3.425696,-7.0176 -2.815567,-16.6097 1.450944,-22.81085 3.972374,-5.77365 11.072251,-8.92237 20.118623,-8.92237 7.82908,0 13.59419,2.07423 17.9989,6.4758 3.14222,3.13996 4.81944,6.58535 5.57134,11.44472 1.46266,9.45293 -2.62808,18.24043 -10.42607,22.39672 -5.06921,2.70185 -12.9927,3.69396 -19.524118,2.44461 z M 83.31102,264.1664 c 2.00732,-1.2252 3.08736,-3.84859 3.08736,-7.49911 0,-5.49853 -2.19757,-8.182 -6.70045,-8.182 -4.412828,0 -7.299046,5.26286 -5.956127,10.86071 0.663276,2.76487 2.712477,5.28217 4.602747,5.65416 1.42177,0.27979 3.79474,-0.11858 4.96647,-0.83376 z m 124.58556,13.27666 c -4.2068,-0.93523 -10.55664,-3.78925 -10.99976,-4.944 -0.36784,-0.95858 3.98181,-10.12916 4.80431,-10.12916 0.2823,0 1.78999,0.63838 3.35043,1.41862 5.77842,2.88929 12.56507,4.17074 14.08087,2.65874 1.27337,-1.27015 -0.32299,-2.30561 -6.33884,-4.1116 -7.16062,-2.14965 -9.38893,-3.26063 -11.72403,-5.8453 -1.89249,-2.09476 -2.84313,-4.61286 -2.8477,-7.54316 -0.0162,-10.37104 11.15196,-16.37018 25.40017,-13.64405 4.43211,0.84801 11.75527,3.59409 12.12012,4.54489 0.22999,0.59933 -3.71386,8.64582 -4.81137,9.81648 -0.22995,0.24527 -2.4268,-0.38787 -5.03076,-1.44989 -3.76027,-1.5336 -5.27007,-1.89233 -8.09371,-1.92305 -3.10887,-0.0338 -3.48575,0.0658 -3.61098,0.95401 -0.19083,1.35342 0.85054,1.89564 7.12,3.7072 8.74938,2.52815 12.891,5.4682 14.1226,10.02534 1.77355,6.56247 -1.93789,13.13629 -8.95374,15.85911 -3.64807,1.41581 -13.49974,1.73689 -18.58761,0.60582 z M 1.474964,277.33082 C 0.983039,277.01852 0.096909,270.94229 0.979085,248.7014 l 0.128108,-28.23327 h 8.429943 8.429942 l 0.126368,11.90109 c 0.06954,6.54561 0.250529,12.2339 0.402278,12.64065 0.194142,0.52038 1.452529,-1.17237 5.328301,-4.58977 l 5.052391,-5.32933 8.429943,0.0105 c 4.636468,0.006 8.727654,0.19919 9.09152,0.42985 0.486916,0.30865 -1.214918,2.41863 -6.446427,7.9924 -3.9094,4.16516 -7.095497,7.93386 -7.080211,8.37489 0.01528,0.44102 3.197047,6.23131 7.070576,12.8673 3.873537,6.63601 6.916112,12.27043 6.761279,12.52095 -0.337948,0.54682 -18.560814,0.60407 -19.415205,0.061 -0.32822,-0.20862 -1.853696,-2.99324 -3.38993,-6.18804 -1.536242,-3.19481 -3.011132,-5.94345 -3.277548,-6.1081 -0.266402,-0.16465 -0.916606,0.0918 -1.444883,0.56989 -0.8365,0.75701 -0.960513,1.55675 -0.960513,6.19401 0,4.39804 -0.136511,5.37715 -0.784379,5.62576 -1.165253,0.44714 -15.23075,0.34988 -15.955674,-0.11033 z m 118.010296,-0.17197 c -0.86577,-0.86576 -0.87702,-40.60196 -0.0118,-41.46723 0.62707,-0.62708 14.44572,-0.88142 15.97633,-0.29407 0.55054,0.21126 0.78438,0.95042 0.78438,2.4794 0,1.19813 0.22971,2.1784 0.51047,2.1784 0.28075,0 1.63884,-0.89194 3.01799,-1.98208 2.52511,-1.99599 7.2957,-3.80168 8.66039,-3.27799 0.6068,0.23286 0.70736,1.52177 0.59335,7.60504 l -0.13728,7.32467 -3.73679,0.26579 c -2.61335,0.18588 -4.25326,0.58739 -5.45467,1.3355 -3.11527,1.93987 -3.18078,2.21993 -3.45346,14.76271 l -0.24794,11.40522 -7.94711,0.13572 c -5.76191,0.0984 -8.11395,-0.0311 -8.5539,-0.47108 z m 45.11323,-0.0117 c -0.44335,-0.44336 -0.59505,-5.74832 -0.59505,-20.80948 0,-19.47789 0.0349,-20.23311 0.95916,-20.72773 1.39021,-0.74402 15.04643,-0.6734 15.80155,0.0817 0.85506,0.85507 0.85506,40.60041 0,41.45548 -0.41028,0.41027 -2.92017,0.59506 -8.08283,0.59506 -5.16265,0 -7.67255,-0.18479 -8.08283,-0.59506 z m 3.61992,-46.64762 c -3.81052,-2.13166 -5.24414,-7.34431 -3.18804,-11.59167 1.45274,-3.00094 3.87388,-4.38625 7.65095,-4.37767 5.09477,0.0117 8.01514,2.68746 8.50023,7.78857 0.66312,6.97326 -6.75418,11.65416 -12.96314,8.18077 z"
     style="fill:#51b5b3;stroke-width:0.49587893"
     sodipodi:nodetypes="sssssssscsssccscscssccsccsccsssscscccscscscscsccsccsscccscssccscssscscssscssscccsc" />
</svg>
